<?xml version="1.0" encoding="utf-8"?>
<!-- Generator: Adobe Illustrator 19.2.1, SVG Export Plug-In . SVG Version: 6.00 Build 0)  -->
<svg version="1.1" xmlns="http://www.w3.org/2000/svg" xmlns:xlink="http://www.w3.org/1999/xlink" x="0px" y="0px"
	 viewBox="0 0 288 288" style="enable-background:new 0 0 288 288;" xml:space="preserve">
<style type="text/css">
	.st0{fill:#F68B1F;}
	.st1{fill:#F1F2F2;}
	.st2{fill:#374A9F;}
	.st3{fill:#F4F3F2;}
	.st4{fill:#201D50;}
	.st5{fill:#169FB5;}
	.st6{fill:#EDAA00;}
</style>
<g id="Layer_1">
	<circle class="st4" cx="144" cy="144" r="144.1"/>
	<path class="st6" d="M273.3,142.6l-24.8-31.5c0,0-2.7-3.2-3-7.5c-0.9-10.5-8.9-19.8-15.9-26.4c0,0,0-0.1,0-0.1
		c-4.3-3.9-14.1-12.3-25.6-18.2c0,0,18.7,3.6,26.6,9.4c0-0.5,0-0.9,0-1.4c0-28.6-24.5-52.2-56.1-55.7c4.1,3,7.7,6.4,10.9,10.1
		c-13.9-5.8-29.7-9.2-45.6-9.6c-26.7-0.7-51.8,7-72.8,20.9c7.2-1.3,14.6-2,22.1-2C78,34.9,10.7,64.3,14.8,144
		C23.7,115.7,43,92,68.1,77.3C44.5,99,29.7,130.1,29.7,164.7c0,37.3,17.2,70.6,44.2,92.3c-8.3-10.8-13.2-24.3-13.2-38.9
		c0-4.6,0.5-9.1,1.4-13.4c2.9,17.1,12.6,31.8,26.3,41.2c-6.2-17.7-11.3-43.4-4.7-72.9c0,0,2,31.7,34.3,57.7
		c21.7,17.6,21.7,34.7,17.7,46c31.9-7.7,38.2-23,38.2-23c0.4,8.3-1.3,15.7-4.2,22.1c12.7-8.1,20.5-19.1,20.5-31.2
		c0-14.4-11.1-27.2-28.2-35.4c25.5,7.4,43.3,23.9,43.3,43.2c0,2.9-0.4,5.7-1.2,8.4c22.4-28.9,2.7-47.9-7-52.9l0,0
		c-5.5-3.4-12.3-6.8-20.4-10c-48.5-18.9-25.9-63.2-24-66.5c0,0-2.5,22.2,10.2,37.6c-0.6-5.2,0.4-11.3,3.9-18.1
		c0,0-0.8,23.8,37.4,39.2l0,0c9.8,4.2,19.7,9.5,26.9,16.4c7.7,8.6,4.3,16.4,4.3,16.4s11.3-5.7,16.3-17.4c5-11.8-0.8-22.4-0.8-22.4
		c3.1-4.3,4.5-8.8,5-11.6c-0.8,0.3-18.6,7.1-27.8,9.2c-15.2,3.4-16.3-11.8-16.5-11.9c-0.1,0,3.8,2.5,7.4,3
		c8.8,1.2,32.3-5.2,32.3-5.2c4.6-1.3,10.9-6,10.9-6c-0.2,1.9-0.7,3.8-1.2,5.6c1-0.4,2.2-1.3,3.4-2.8c2.2-2.8,4.4-6.2,5.8-8.5
		c-3,0.4-6.1,2.2-6.1,2.2c-0.3-4.5-8.8-5.9-11.7-8.3c-2.9-2.4-2.3-7.7-2.3-7.7C257.4,144.6,267.2,142.2,273.3,142.6 M177.9,66.6
		c-9.1-1.9-18.2-0.7-26.3,2.8c3.8-0.6,9.3-0.2,13.2,0.8c-9.6,1.6-18.2,6.6-24.6,13.7c4.3-1.5,8.9-2.3,13.7-2.3c1,0,1.9,0,2.8,0.1
		c-0.3,0.6-0.6,1.2-1,1.8c-8,16-31.8,17.1-31.8,17.1c6.2-3.3,7.9-15.3,8.4-27c0.5-11.7,5.9-24.4,21.7-24.4
		c14.3,0,25.6,16.1,27.1,18.2C180.1,67.2,179,66.9,177.9,66.6 M215.1,108.4c-6.7,1.6-13.1-0.4-15.9-4.5c-0.6-1.1-0.4-2-0.2-2.4
		c-1.6-0.3-3.2-0.4-4.5-0.2c0,0,3.5-2.4,10.4-3.6c5.2-0.9,11.1,0,11.1,0c1.1,1.1,2.6,3.1,4.6,6.9c0.5,0.9,1,1.8,1.5,2.7c0,0,0,0,0,0
		c3.8,6.3,9.2,12.3,14.2,14.8C227,120.2,218.5,112,215.1,108.4"/>
</g>
<g id="Layer_2">
</g>
</svg>
